# xmcd
#
# Track frame offsets: 
#        183
#        9485
#        22953
#        34473
#        46718
#        60720
#        73395
#        85675
#        95608
#        104928
#        114388
#        123978
#        135248
#        145910
#        157735
#        169000
#        180975
#        195018
#        206480
#        218818
#
# Disc length: 3085 seconds
#
# Revision: 0
# Processed by: cddbd v1.5.1PL0 Copyright (c) Steve Scherf et al.
# Submitted via: ExactAudioCopy v0.95a4
#
DISCID=090c0b14
DTITLE=Various Artist - I'm A Honky Tonk Daddy
DYEAR=1900
DGENRE=Country
TTITLE0=Lou Millet - When I'm Out Honky Tonkin' With You
TTITLE1=Jim and Johnny - I Can't Go On
TTITLE2=Lefty Frizzell - Send Her Here To Be Mine
TTITLE3=Lefty Frizzell - Lost Love Blues
TTITLE4=Lefty Frizzell - That's Me Without You
TTITLE5=Benny Fruge - Bayou Boogie
TTITLE6=Tommy Hill - The Life That I'm Living
TTITLE7=Tommy and Kenny Hill - I Must Leave You
TTITLE8=Joey Gills - Baby Leave Your Troubles At Home
TTITLE9=Smokey Stover - Go On And Leave My Baby Alone
TTITLE10=Lou Millet - If You Didn't, Don't, 'Cause It Ain't
TTITLE11=Wink Lewis - I'm A Honky Tonk Daddy
TTITLE12=Mack Hamilton - Will You Will Or Will You Won't
TTITLE13=Jimmie Lee Durden - Old Mr Moon
TTITLE14=Jimmie Lee Durden - Should I Should Or Should I Shouldn't
TTITLE15=Lynn Howard - I'm A Cry Cry Baby
TTITLE16=Bill Hutto - She's My Five Foot Five
TTITLE17=Bill Hutto - If You Think You've Got Troubles
TTITLE18=Al Montgomery - It Wasn't God Who Made Honky Tonk Angels
TTITLE19=Feature House Band - Open Strings
EXTD=
EXTT0=
EXTT1=
EXTT2=
EXTT3=
EXTT4=
EXTT5=
EXTT6=
EXTT7=
EXTT8=
EXTT9=
EXTT10=
EXTT11=
EXTT12=
EXTT13=
EXTT14=
EXTT15=
EXTT16=
EXTT17=
EXTT18=
EXTT19=
PLAYORDER=
